<?xml version="1.0" encoding="UTF-8" standalone="no"?>
<svg
   width="94.097"
   height="94.133"
   viewBox="0 0 94.097 94.133"
   version="1.1"
   id="svg28"
   xmlns="http://www.w3.org/2000/svg"
   xmlns:svg="http://www.w3.org/2000/svg">
  <defs
     id="defs32" />
  <path
     fill="#FFFFFF"
     id="path166"
     d="m 20.478516,0.00195313 a 20.6,20.6 0 0 0 -8.71875,39.20312487 14.093,14.093 0 0 1 1.375,-1.607422 13.376,13.376 0 0 1 9.029296,-3.912109 7.75,7.75 0 0 1 -0.5,-1.044922 13.284,13.284 0 1 1 10.910157,-10.746094 8.292,8.292 0 0 1 1.070312,0.541016 13.376,13.376 0 0 1 3.957031,-9.300781 14.093,14.093 0 0 1 1.609376,-1.373047 A 20.6,20.6 0 0 0 20.478516,0.00195313 Z M 73.488281,0.078125 a 20.6,20.6 0 0 0 -18.55664,11.681641 14.091,14.091 0 0 1 1.638671,1.386718 13.4,13.4 0 0 1 3.921876,9.113282 h 0.0059 a 7.327,7.327 0 0 1 1.056641,-0.517578 12.8,12.8 0 0 1 -0.1875,-2.136719 13.165,13.165 0 1 1 13.164062,13.175781 13.517,13.517 0 0 1 -2.199219,-0.199219 6.341,6.341 0 0 1 -0.527343,1.056641 13.388,13.388 0 0 1 9.242187,3.958984 14.092,14.092 0 0 1 1.384766,1.642578 20.6,20.6 0 0 0 -8.94336,-39.162109 z M 45.966797,15.763672 a 7.833,7.833 0 0 0 -5.539063,11.898437 20.54,20.54 0 0 1 13.292969,0 7.833,7.833 0 0 0 -7.753906,-11.898437 z m 1.107422,18.591797 A 12.895,12.895 0 0 0 34.179688,47.25 12.895,12.895 0 0 0 47.074219,60.144531 12.895,12.895 0 0 0 59.96875,47.25 12.895,12.895 0 0 0 47.074219,34.355469 Z m 23.6875,5.0625 A 7.692,7.692 0 0 0 66.533203,40.685547 20.47,20.47 0 0 1 66.392578,53.720703 7.81,7.81 0 0 0 78.59375,47.25 h 0.002 a 7.833,7.833 0 0 0 -7.833984,-7.832031 z m -47.304688,0.002 A 7.821,7.821 0 0 0 15.71875,47.251953 7.821,7.821 0 0 0 27.818359,53.804688 20.564,20.564 0 0 1 27.677734,40.603516 7.821,7.821 0 0 0 23.457031,39.419922 Z M 11.761719,54.935547 A 20.6,20.6 0 1 0 39.205078,82.388672 14.091,14.091 0 0 1 37.597656,81.048828 13.529,13.529 0 0 1 34.714844,76.810547 13.165,13.165 0 1 1 21.800781,61.371094 h 0.105469 a 6.576,6.576 0 0 1 0.423828,-0.869141 13.376,13.376 0 0 1 -9.160156,-3.921875 14.091,14.091 0 0 1 -1.408203,-1.644531 z m 70.623047,0 a 14.09,14.09 0 0 1 -1.335938,1.634765 13.388,13.388 0 0 1 -9.265625,3.921876 10.244,10.244 0 0 1 0.552735,1.070312 12.848,12.848 0 0 1 2.242187,-0.201172 13.165,13.165 0 1 1 -13.207031,13.169922 12.636,12.636 0 0 1 0.164062,-2.007812 7.844,7.844 0 0 1 -1.044922,-0.515626 13.353,13.353 0 0 1 -3.919922,9.042969 14.093,14.093 0 0 1 -1.642578,1.384766 20.6,20.6 0 1 0 27.457032,-27.5 z M 40.496094,66.345703 a 7.821,7.821 0 1 0 14.40039,4.240235 7.68,7.68 0 0 0 -1.253906,-4.228516 20.388,20.388 0 0 1 -13.146484,-0.01172 z" />
</svg>
