<?xml version="1.0" encoding="UTF-8" standalone="no"?>
<!-- Created with Inkscape (http://www.inkscape.org/) -->

<svg
   width="22"
   height="7"
   viewBox="0 0 5.8208302 1.8520842"
   version="1.1"
   id="svg5"
   xml:space="preserve"
   xmlns="http://www.w3.org/2000/svg"
   xmlns:svg="http://www.w3.org/2000/svg"><defs
     id="defs2" /><path
     id="path340"
     style="font-size:55.9339px;font-family:RoundedMplus1c-Regular, 'Rounded Mplus 1c';stroke-width:0.0187362"
     d="m 0.39154357,0.00914933 a 0.38642216,0.38642216 0 0 0 -0.16354606,0.73537692 0.26436151,0.26436151 0 0 1 0.0257906,-0.0301434 0.25091179,0.25091179 0 0 1 0.16937405,-0.073394 0.14537726,0.14537726 0 0 1 -0.009383,-0.0196 0.249186,0.249186 0 1 1 0.20465626,-0.20157298 0.15554429,0.15554429 0 0 1 0.0200835,0.0101446 A 0.25091179,0.25091179 0 0 1 0.71274702,0.255496 0.26436151,0.26436151 0 0 1 0.74293882,0.2297417 0.38642216,0.38642216 0 0 0 0.39154357,0.00914933 Z m 0.99437123,0.001427 a 0.38642216,0.38642216 0 0 0 -0.3480826,0.21912948 0.264324,0.264324 0 0 1 0.030736,0.0260083 0.25136199,0.25136199 0 0 1 0.073563,0.1709459 h 1.1e-4 a 0.13744248,0.13744248 0 0 1 0.019818,-0.009709 0.24010698,0.24010698 0 0 1 -0.00352,-0.0400704 0.24695376,0.24695376 0 1 1 0.2469394,0.24714484 0.2535567,0.2535567 0 0 1 -0.041255,-0.00374 0.11894674,0.11894674 0 0 1 -0.00989,0.01983 0.25113688,0.25113688 0 0 1 0.1733763,0.074264 0.26434277,0.26434277 0 0 1 0.025972,0.030809 0.38642216,0.38642216 0 0 0 -0.167755,-0.73461514 z M 0.89034338,0.30334121 a 0.1469342,0.1469342 0 0 0 -0.00559,1.0997e-4 0.1469342,0.1469342 0 0 0 -0.01509,0.001354 0.1469342,0.1469342 0 0 0 -0.1039121,0.22320417 0.38529665,0.38529665 0 0 1 0.24935752,0 A 0.1469342,0.1469342 0 0 0 0.89033938,0.30334213 Z M 2.7590561,0.49528965 c -0.05266,0 -0.1013878,0.00886 -0.146183,0.026601 -0.044453,0.017739 -0.081728,0.043323 -0.1118199,0.076755 -0.031459,0.035138 -0.055396,0.077444 -0.07181,0.1269096 -0.016414,0.049125 -0.024618,0.1047228 -0.024618,0.1668106 0,0.063111 0.0082,0.11922195 0.024618,0.16834635 0.016755,0.049125 0.040527,0.090573 0.071302,0.1243463 0.030775,0.033773 0.068038,0.059524 0.1118077,0.077263 0.044111,0.017739 0.093017,0.026637 0.1467029,0.026637 0.055054,0 0.1039472,-0.00872 0.1466908,-0.026117 0.043086,-0.017398 0.080361,-0.043328 0.1118199,-0.077783 0.030433,-0.033091 0.054026,-0.074373 0.070782,-0.1238385 0.017097,-0.049807 0.025646,-0.10608405 0.025646,-0.16885415 0,-0.06277 -0.00837,-0.1188807 -0.025126,-0.1683462 -0.016413,-0.0494657 -0.040185,-0.09126 -0.071302,-0.1253742 -0.030433,-0.0330907 -0.06753,-0.0585079 -0.1112996,-0.0762473 -0.043427,-0.0180805 -0.092499,-0.0271085 -0.1472108,-0.0271085 z M 1.8737478,0.51115325 V 1.2730947 H 2.3569256 V 1.1830391 H 1.9753021 V 0.51115325 Z m 1.2915375,0 0.2698039,0.4385492 V 1.2730947 H 3.5366435 V 0.93892915 l 0.268776,-0.4277759 H 3.697191 L 3.4863802,0.85195685 3.277625,0.51115325 Z m 0.7134796,0 v 0.077783 H 3.9787838 V 1.1953118 H 3.8787649 v 0.077783 H 4.1803688 V 1.1953118 H 4.0803502 V 0.58893625 h 0.1000186 v -0.077783 z m 0.4744602,0 V 1.2730947 h 0.094892 V 0.59149955 L 4.8102377,1.2730947 H 4.9359019 V 0.51115325 H 4.8410098 V 1.1334046 L 4.5106893,0.51115325 Z m 0.6832154,0 v 0.090056 H 5.3093156 V 1.2730947 H 5.4108699 V 0.60120885 h 0.2728749 v -0.090055 z m -2.2768766,0.071629 c 0.076938,0 0.1376407,0.026954 0.182094,0.080854 0.044453,0.053559 0.066683,0.1297988 0.066683,0.2287299 0,0.099955 -0.022574,0.17656375 -0.067711,0.22978195 -0.044795,0.052877 -0.1051538,0.079282 -0.1810664,0.079282 -0.075912,0 -0.1364369,-0.026405 -0.1815742,-0.079282 -0.045137,-0.053218 -0.067699,-0.12982735 -0.067699,-0.22978195 0,-0.098931 0.022052,-0.1751705 0.066163,-0.2287299 0.044453,-0.0539 0.1054875,-0.080854 0.1831106,-0.080854 z M 0.89044008,0.65356385 A 0.24188902,0.24188902 0 0 0 0.64855491,0.89543695 0.24188902,0.24188902 0 0 0 0.89044008,1.1373222 0.24188902,0.24188902 0 0 0 1.1323132,0.89543695 0.24188902,0.24188902 0 0 0 0.89044008,0.65356385 Z M 1.334781,0.74852885 A 0.14428928,0.14428928 0 0 0 1.25545,0.77229985 0.38398357,0.38398357 0 0 1 1.25281,1.016821 0.14650276,0.14650276 0 0 0 1.481685,0.89543705 h 3.51e-5 A 0.1469342,0.1469342 0 0 0 1.3347798,0.74852845 Z m -0.88736383,3.75e-5 A 0.1467091,0.1467091 0 0 0 0.30226187,0.89547475 0.1467091,0.1467091 0 0 0 0.52922649,1.0183943 0.38574685,0.38574685 0 0 1 0.52659049,0.77076585 0.1467091,0.1467091 0 0 0 0.44741717,0.74856635 Z M 0.22803378,1.0396129 a 0.38642216,0.38642216 0 1 0 0.5147965,0.5149658 0.264324,0.264324 0 0 1 -0.030156,-0.025126 0.25378181,0.25378181 0 0 1 -0.054084,-0.0795 0.24695376,0.24695376 0 1 1 -0.24224792,-0.2896214 h 0.001983 a 0.12335496,0.12335496 0 0 1 0.007956,-0.016311 0.25091179,0.25091179 0 0 1 -0.17182856,-0.073563 0.264324,0.264324 0 0 1 -0.026419,-0.030844 z m 1.32477632,0 a 0.26430526,0.26430526 0 0 1 -0.025065,0.030663 0.25113688,0.25113688 0 0 1 -0.1738115,0.073563 0.19216061,0.19216061 0 0 1 0.010374,0.020083 0.24100738,0.24100738 0 0 1 0.042053,-0.00377 0.24695376,0.24695376 0 1 1 -0.2477374,0.2470361 0.23703059,0.23703059 0 0 1 0.00307,-0.037664 0.14714055,0.14714055 0 0 1 -0.0196,-0.00966 0.25048033,0.25048033 0 0 1 -0.073527,0.1696279 0.26436151,0.26436151 0 0 1 -0.030809,0.025972 0.38642216,0.38642216 0 1 0 0.5150504,-0.5158484 z m -0.78577312,0.214027 a 0.1467091,0.1467091 0 1 0 0.27013022,0.079548 0.14406418,0.14406418 0 0 0 -0.023518,-0.079318 0.38244537,0.38244537 0 0 1 -0.24661222,-2.3e-4 z" /></svg>
