<?xml version="1.0" encoding="UTF-8" standalone="no"?>
<svg
   id="Layer_2"
   data-name="Layer 2"
   width="204"
   height="43"
   viewBox="0 0 204 43"
   version="1.1"
   xmlns="http://www.w3.org/2000/svg"
   xmlns:svg="http://www.w3.org/2000/svg">
  <defs
     id="defs18" />
  <g
     aria-label="LOYINT"
     transform="scale(1.0011811,0.99882034)"
     id="LOYINT"
     style="font-size:55.9339px;font-family:RoundedMplus1c-Regular, 'Rounded Mplus 1c';stroke-width:0.99882">
    <path
       fill="#59C7F0"
       id="path190"
       d="M 203.38059,5.8642052 H 188.85088 V 41.724171 h -5.40767 V 5.8642052 h -14.5297 V 1.0573858 h 34.46708 z M 163.56047,41.724171 h -6.69131 L 137.58725,5.3452872 V 41.724171 h -5.05262 V 1.0573858 h 8.38462 L 158.50784,34.268138 V 1.0573858 h 5.05263 z m -40.22981,0 h -16.05915 v -4.151344 h 5.32574 V 5.2087298 h -5.32574 v -4.151344 h 16.05915 v 4.151344 h -5.32574 V 37.572827 h 5.32574 z M 103.36598,1.0573858 89.054765,23.889778 V 41.724171 H 83.647093 V 24.463319 L 69.281258,1.0573858 H 75.26247 L 86.37824,19.246828 97.603256,1.0573858 Z m -41.950426,4.670262 q 2.485344,2.7311474 3.796295,6.6913112 1.338262,3.960164 1.338262,8.985475 0,5.025311 -1.365574,9.012786 -1.338262,3.960164 -3.768983,6.609377 -2.512656,2.758459 -5.953902,4.151344 -3.413934,1.392885 -7.811081,1.392885 -4.287902,0 -7.811082,-1.420196 -3.495868,-1.420197 -5.953901,-4.124033 -2.458033,-2.703836 -3.796295,-6.636688 -1.310951,-3.932852 -1.310951,-8.985475 0,-4.970688 1.310951,-8.903541 1.310951,-3.9601633 3.823606,-6.7732452 2.40341,-2.6765244 5.953902,-4.0967211 3.577803,-1.42019662 7.78377,-1.42019662 4.369836,0 7.838393,1.44750812 3.495869,1.4201967 5.92659,4.0694096 z M 60.923947,21.404434 q 0,-7.920328 -3.550491,-12.208229 -3.550492,-4.3152129 -9.695574,-4.3152129 -6.199704,0 -9.750196,4.3152129 -3.52318,4.287901 -3.52318,12.208229 0,8.002262 3.605114,12.262852 3.605115,4.233278 9.668262,4.233278 6.063148,0 9.640951,-4.233278 3.605114,-4.26059 3.605114,-12.262852 z M 26.238374,41.724171 H 0.51096559 V 1.0573858 H 5.9186375 V 36.917351 H 26.238374 Z" />
  </g>
</svg>
