<?xml version="1.0" encoding="utf-8"?>
<!-- Generator: Adobe Illustrator 24.0.0, SVG Export Plug-In . SVG Version: 6.00 Build 0)  -->
<svg version="1.1" id="Layer_2_1_" xmlns:svg="http://www.w3.org/2000/svg"
	 xmlns="http://www.w3.org/2000/svg" xmlns:xlink="http://www.w3.org/1999/xlink" x="0px" y="0px" viewBox="0 0 1243 262"
	 style="enable-background:new 0 0 1243 262;" xml:space="preserve">
<style type="text/css">
	.st0{fill:#00455F;}
</style>
<g id="LOYINT" transform="scale(1.0011811,0.99882034)">
	<path id="path190" class="st0" d="M1241.5,37.3h-88.9v219.4h-33.1V37.3h-88.9V7.9h210.8V37.3z M997.9,256.7H957L839,34.1v222.5
		h-30.9V7.9h51.3L967,211V7.9h30.9V256.7z M751.8,256.7h-98.2v-25.4h32.6v-198h-32.6V7.9h98.2v25.4h-32.6v198h32.6V256.7z
		 M629.7,7.9l-87.5,139.7v109.1h-33.1V151.1L421.2,7.9h36.6l68,111.3L594.4,7.9H629.7z M373.1,36.5c10.1,11.1,17.9,24.8,23.2,40.9
		c5.5,16.2,8.2,34.5,8.2,55s-2.8,38.9-8.4,55.1c-5.5,16.2-13.1,29.6-23.1,40.4c-10.2,11.2-22.4,19.7-36.4,25.4
		c-13.9,5.7-29.8,8.5-47.8,8.5c-17.5,0-33.4-2.9-47.8-8.7c-14.3-5.8-26.4-14.2-36.4-25.2c-10-11-17.8-24.6-23.2-40.6
		c-5.3-16-8-34.4-8-55c0-20.3,2.7-38.4,8-54.5c5.3-16.2,13.1-30,23.4-41.4c9.8-10.9,21.9-19.3,36.4-25.1c14.6-5.8,30.5-8.7,47.6-8.7
		c17.8,0,33.8,3,47.9,8.9C351.1,17.3,363.2,25.6,373.1,36.5z M370.1,132.3c0-32.3-7.2-57.2-21.7-74.7
		c-14.5-17.6-34.2-26.4-59.3-26.4c-25.3,0-45.2,8.8-59.6,26.4c-14.4,17.5-21.6,42.4-21.6,74.7c0,32.6,7.4,57.6,22.1,75
		c14.7,17.3,34.4,25.9,59.1,25.9c24.7,0,44.4-8.6,59-25.9C362.7,190,370.1,165,370.1,132.3z M157.9,256.7H0.5V7.9h33.1v219.4h124.3
		V256.7z"/>
</g>
</svg>
